<?xml version="1.0" encoding="UTF-8"?>
<svg xmlns="http://www.w3.org/2000/svg" xmlns:xlink="http://www.w3.org/1999/xlink" width="200px" height="144px" viewBox="0 0 200 144" version="1.1">
<g id="surface1">
<path style="fill-rule:nonzero;fill:rgb(100%,100%,100%);fill-opacity:1;stroke-width:1;stroke-linecap:butt;stroke-linejoin:miter;stroke:rgb(100%,100%,100%);stroke-opacity:1;stroke-miterlimit:4;" d="M 59.494805 15.503906 C 51.496758 15.004123 51.496758 14.961589 42.496289 16.503472 C 33.506484 18.045356 30.499219 37.504991 45.002344 37.504991 C 59.494805 37.504991 68.239336 43.225911 72.00375 47.000868 C 76.38668 54.763455 76.120078 59.272135 72.00375 67.502604 C 72.00375 67.502604 68.505938 70.501302 62.50207 75.998915 C 56.498203 81.496528 59.494805 92.502387 62.50207 94.001736 C 65.498672 95.501085 73.219453 96.032769 77.996953 100.998698 C 79.884492 107.857422 80.503008 108.995226 76.002773 118.001953 C 71.502539 126.998047 55.421133 130.656033 43.999922 130.496528 C 32.578711 130.337023 41.141953 152.60395 51.997969 152.497613 C 62.853984 152.40191 76.535977 150.551649 89.002266 138.503689 C 98.024062 129.092882 101.201953 122.244792 102.001758 105.996528 C 100.594102 95.384115 98.034727 90.014106 89.002266 81.996311 C 97.053633 71.96875 99.421055 65.024957 98.503945 49.499783 C 94.856836 27.04145 67.503516 16.003689 59.494805 15.503906 Z M 59.494805 15.503906 " transform="matrix(0.3663,0,0,0.367347,0,0)"/>
<path style=" stroke:none;fill-rule:nonzero;fill:rgb(100%,100%,100%);fill-opacity:1;" d="M 1.28125 53.449219 C 1.28125 53.449219 1.28125 17.816406 1.28125 13.40625 C 1.28125 9 9.523438 9 9.523438 13.40625 L 9.523438 26.816406 L 15.019531 26.816406 C 19.046875 26.816406 19.046875 35.265625 15.019531 35.265625 L 9.523438 35.265625 L 9.523438 53.449219 C 8.792969 57.675781 1.832031 57.675781 1.28125 53.449219 Z M 1.28125 53.449219 "/>
<path style="fill:none;stroke-width:1;stroke-linecap:butt;stroke-linejoin:miter;stroke:rgb(100%,100%,100%);stroke-opacity:1;stroke-miterlimit:4;" d="M 25.998984 73.000217 L 41.00332 73.000217 C 51.997969 73.000217 51.997969 96.000868 41.00332 96.000868 L 25.998984 96.000868 L 25.998984 145.500651 C 24.004805 157.006293 5.001445 157.006293 3.497812 145.500651 C 3.497812 145.500651 3.497812 48.500217 3.497812 36.494792 C 3.497812 24.5 25.998984 24.5 25.998984 36.494792 M 25.998984 73.000217 C 25.998984 73.000217 25.998984 48.500217 25.998984 36.494792 M 25.998984 73.000217 L 25.998984 36.494792 " transform="matrix(0.3663,0,0,0.367347,0,0)"/>
<path style="fill-rule:nonzero;fill:rgb(100%,100%,100%);fill-opacity:1;stroke-width:1;stroke-linecap:butt;stroke-linejoin:miter;stroke:rgb(100%,100%,100%);stroke-opacity:1;stroke-miterlimit:4;" d="M 120.002695 103.497613 C 120.002695 103.497613 120.077344 30.008247 120.002695 21.001519 C 119.917383 11.994792 142.375898 11.962891 142.503867 21.001519 C 142.621172 30.029514 143.996836 103.497613 143.996836 103.497613 C 147.451992 113.503906 150.811172 118.51237 161.496563 125.498698 C 173.30168 130.996311 180.137344 130.177517 192.496992 125.498698 C 202.809141 119.713976 206.125664 114.769314 208.50375 103.497613 C 208.50375 103.497613 210.49793 30.497396 210.49793 21.001519 C 210.49793 11.495009 232.999102 11.495009 232.999102 21.001519 L 232.999102 103.497613 C 230.780977 115.949653 227.709727 121.968316 219.999609 131.496094 C 212.385469 141.927734 206.189648 145.809028 192.496992 149.998698 C 180.393281 152.189236 173.600273 152.029731 161.496563 149.998698 C 149.030273 146.319444 142.749141 142.40625 133.002187 131.496094 C 125.835938 121.681207 122.913984 115.56684 120.002695 103.497613 Z M 120.002695 103.497613 " transform="matrix(0.3663,0,0,0.367347,0,0)"/>
<path style="fill-rule:nonzero;fill:rgb(100%,100%,100%);fill-opacity:1;stroke-width:1;stroke-linecap:butt;stroke-linejoin:miter;stroke:rgb(100%,100%,100%);stroke-opacity:1;stroke-miterlimit:4;" d="M 254.999063 144.001302 L 254.999063 51.498915 C 257.793047 44.9273 260.181797 42.832465 266.494922 43.002604 C 272.178867 43.247179 274.492969 45.320747 277.500234 51.498915 L 277.500234 144.001302 C 274.07707 149.647786 271.560352 151.370443 266.004375 151.99783 C 260.011172 151.306641 257.473125 149.722222 254.999063 144.001302 Z M 254.999063 144.001302 " transform="matrix(0.3663,0,0,0.367347,0,0)"/>
<path style=" stroke:none;fill-rule:nonzero;fill:rgb(100%,100%,100%);fill-opacity:1;" d="M 103.847656 6.246094 C 103.847656 9.695312 101.058594 12.488281 97.617188 12.488281 C 94.179688 12.488281 91.390625 9.695312 91.390625 6.246094 C 91.390625 2.796875 94.179688 0 97.617188 0 C 101.058594 0 103.847656 2.796875 103.847656 6.246094 Z M 93.476562 6.246094 C 93.476562 8.539062 95.332031 10.398438 97.617188 10.398438 C 99.90625 10.398438 101.761719 8.539062 101.761719 6.246094 C 101.761719 3.949219 99.90625 2.089844 97.617188 2.089844 C 95.332031 2.089844 93.476562 3.949219 93.476562 6.246094 Z M 93.476562 6.246094 "/>
<path style="fill-rule:nonzero;fill:rgb(100%,100%,100%);fill-opacity:1;stroke-width:1;stroke-linecap:butt;stroke-linejoin:miter;stroke:rgb(100%,100%,100%);stroke-opacity:1;stroke-miterlimit:4;" d="M 300.502617 142.501953 L 300.502617 21.501302 C 303.520547 16.577908 305.738672 14.812717 311.497266 15.004123 C 317.394492 15.152995 320.081836 16.546007 323.505 21.501302 L 323.505 128.497396 L 332.494805 128.497396 C 341.30332 131.868273 342.551016 134.803168 342.998906 140.502821 C 343.329492 145.9898 341.345977 148.222873 336.003281 151.498047 L 309.503086 151.498047 C 304.917539 149.934896 302.667422 148.456814 300.502617 142.501953 Z M 300.502617 142.501953 " transform="matrix(0.3663,0,0,0.367347,0,0)"/>
<path style=" stroke:none;fill-rule:nonzero;fill:rgb(10.980392%,64.313728%,94.509804%);fill-opacity:1;" d="M 125.394531 41.585938 C 127.460938 41.65625 129.519531 41.246094 131.433594 40.382812 C 133.347656 39.519531 135.074219 38.222656 136.5 36.578125 C 137.925781 34.933594 139.015625 32.976562 139.703125 30.839844 C 140.386719 28.707031 140.652344 26.4375 140.476562 24.1875 C 140.300781 21.9375 139.691406 19.753906 138.6875 17.785156 C 137.679688 15.820312 136.304688 14.109375 134.648438 12.769531 C 132.988281 11.433594 131.089844 10.496094 129.070312 10.019531 C 127.054688 9.546875 124.964844 9.550781 122.941406 10.023438 L 123.425781 12.554688 C 125.121094 12.15625 126.871094 12.15625 128.5625 12.554688 C 130.253906 12.949219 131.84375 13.734375 133.234375 14.855469 C 134.621094 15.976562 135.773438 17.410156 136.617188 19.058594 C 137.457031 20.707031 137.96875 22.535156 138.117188 24.421875 C 138.261719 26.304688 138.042969 28.207031 137.46875 29.996094 C 136.894531 31.785156 135.976562 33.421875 134.785156 34.800781 C 133.589844 36.179688 132.144531 37.265625 130.539062 37.988281 C 128.9375 38.714844 127.210938 39.058594 125.480469 39 Z M 125.394531 41.585938 "/>
<path style=" stroke:none;fill-rule:nonzero;fill:rgb(100%,100%,100%);fill-opacity:1;" d="M 131.6875 47.753906 L 146.339844 47.753906 C 148.28125 48.746094 148.535156 49.59375 148.535156 51.613281 C 148.535156 53.632812 147.746094 54.753906 146.339844 55.835938 L 131.714844 55.652344 C 130.585938 55.285156 129.488281 53.449219 129.515625 51.613281 C 129.304688 49.59375 130.054688 48.789062 131.6875 47.753906 Z M 131.6875 47.753906 "/>
<path style=" stroke:none;fill-rule:evenodd;fill:rgb(100%,100%,100%);fill-opacity:1;" d="M 157.875 55.101562 C 156.402344 54.644531 155.820312 54.136719 155.496094 52.53125 L 155.496094 7.53125 C 156.066406 6.261719 156.597656 5.644531 158.425781 5.144531 L 179.121094 5.144531 C 186.035156 7.578125 189.433594 9.4375 193.957031 14.328125 C 196.65625 18.3125 197.71875 20.566406 198.902344 24.613281 C 199.554688 28.960938 199.589844 31.335938 198.902344 35.449219 C 197.640625 39.980469 196.535156 42.21875 193.957031 45.734375 C 189.183594 51.070312 185.898438 53.078125 179.121094 55.101562 Z M 189.378906 24.613281 C 186.808594 18.539062 184.363281 16.574219 179.121094 14.328125 C 173.082031 13.917969 169.648438 13.878906 163.917969 14.328125 L 163.917969 47.019531 C 169.578125 47.417969 172.785156 47.5625 179.121094 46.46875 C 184.660156 44.457031 187.15625 42.417969 189.378906 35.449219 C 190.546875 31.6875 190.625 29.34375 189.378906 24.613281 Z M 189.378906 24.613281 "/>
<path style="fill:none;stroke-width:1;stroke-linecap:butt;stroke-linejoin:miter;stroke:rgb(100%,100%,100%);stroke-opacity:1;stroke-miterlimit:4;" d="M 424.504336 20.501736 C 424.504336 68.342665 424.504336 95.160807 424.504336 143.001736 M 424.504336 20.501736 C 426.061289 17.04579 427.511602 15.365668 432.502383 14.004557 L 489.000586 14.004557 C 507.875977 20.62934 517.153711 25.690972 529.502695 39.00434 C 536.871562 49.850694 539.772187 55.986328 543.003398 67.002821 C 544.784297 78.838108 544.880273 85.303385 543.003398 96.500651 C 539.558906 108.83572 536.540977 114.928819 529.502695 124.499132 C 516.471211 139.02474 507.502734 144.490451 489.000586 149.998698 L 430.99875 149.998698 C 426.978398 148.754557 425.389453 147.372179 424.504336 143.001736 M 424.504336 20.501736 L 424.504336 143.001736 M 489.000586 39.00434 C 503.311758 45.118707 509.987461 50.467448 517.004414 67.002821 C 520.40625 79.880208 520.192969 86.260417 517.004414 96.500651 C 510.936562 115.471137 504.122227 121.021918 489.000586 126.498264 C 471.703477 129.475694 462.948281 129.082248 447.496055 127.997613 L 447.496055 39.00434 C 463.140234 37.781467 472.513945 37.887804 489.000586 39.00434 Z M 489.000586 39.00434 " transform="matrix(0.3663,0,0,0.367347,0,0)"/>
<path style="fill-rule:nonzero;fill:rgb(10.980392%,64.313728%,94.509804%);fill-opacity:1;stroke-width:1;stroke-linecap:butt;stroke-linejoin:miter;stroke:rgb(10.980392%,64.313728%,94.509804%);stroke-opacity:1;stroke-miterlimit:4;" d="M 4.500234 307.004991 L 4.500234 182.495226 C 6.046523 176.338325 7.987383 173.743707 15.004336 171.999783 L 125.004141 171.999783 C 130.709414 172.91428 132.735586 175.264323 134.495156 182.495226 C 133.183477 190.002604 130.720078 192.182509 125.004141 194.500651 L 27.502617 194.500651 L 27.502617 307.004991 C 25.049883 314.289062 22.18125 316.415799 15.004336 317.500434 C 8.499258 316.213759 6.323789 313.78928 4.500234 307.004991 Z M 4.500234 307.004991 " transform="matrix(0.3663,0,0,0.367347,0,0)"/>
<path style=" stroke:none;fill-rule:nonzero;fill:rgb(10.980392%,64.313728%,94.509804%);fill-opacity:1;" d="M 18.132812 87.429688 L 37.179688 87.429688 C 39.078125 88.613281 39.621094 89.546875 39.742188 91.652344 C 39.648438 93.699219 38.996094 94.585938 37.179688 95.878906 L 18.132812 95.878906 C 16.386719 94.816406 15.65625 93.976562 15.203125 91.652344 C 15.53125 89.554688 16.011719 88.542969 18.132812 87.429688 Z M 18.132812 87.429688 "/>
<path style="fill-rule:nonzero;fill:rgb(10.980392%,64.313728%,94.509804%);fill-opacity:1;stroke-width:1;stroke-linecap:butt;stroke-linejoin:miter;stroke:rgb(10.980392%,64.313728%,94.509804%);stroke-opacity:1;stroke-miterlimit:4;" d="M 225.502266 304.995226 L 182.504766 178.496962 C 179.753437 172.648437 176.543555 170.925781 168.502852 170.000651 C 161.688516 170.425998 159.043828 172.435764 156.00457 178.496962 L 111.002227 291.001302 C 111.972656 294.489149 113.220352 294.914497 116.504883 293.500217 L 157.497539 195.000434 C 159.65168 193.097005 160.846055 193.426649 163.000195 195.000434 L 180.499922 243.500651 L 155.002148 244.500217 C 147.036094 248.572917 145.948359 251.869358 146.502891 258.504774 C 149.446172 266.182292 152.954648 267.777344 160.995352 268.000651 C 172.789805 266.884115 178.985625 266.926649 188.497969 269.5 C 194.576484 287.385851 197.455781 296.764757 203.001094 314.001953 C 208.461094 319.765408 212.278828 319.318793 219.498398 316.500868 C 223.305469 312.598307 224.777109 310.152561 225.502266 304.995226 Z M 225.502266 304.995226 " transform="matrix(0.3663,0,0,0.367347,0,0)"/>
<path style="fill-rule:nonzero;fill:rgb(10.980392%,64.313728%,94.509804%);fill-opacity:1;stroke-width:1;stroke-linecap:butt;stroke-linejoin:miter;stroke:rgb(10.980392%,64.313728%,94.509804%);stroke-opacity:1;stroke-miterlimit:4;" d="M 316.999922 172.499566 C 304.618945 166.948785 297.62332 165.736545 284.99707 168.501302 C 279.409102 171.000217 277.521563 173.488498 275.996602 179.496528 C 278.161406 186.036241 280.198242 188.333116 284.99707 190.502387 L 297.004805 192.001736 C 304.267031 191.650825 307.988789 194.277344 314.504531 199.998264 C 322.171992 207.303602 324.795352 211.472005 327.504023 219.000651 C 336.376523 222.158854 340.482188 219.362196 344.502539 211.004123 C 344.939766 205.240668 344.470547 202.146267 341.495273 196.999566 C 334.862227 183.484158 329.370234 178.284288 316.999922 172.499566 Z M 316.999922 172.499566 " transform="matrix(0.3663,0,0,0.367347,0,0)"/>
<path style="fill-rule:nonzero;fill:rgb(10.980392%,64.313728%,94.509804%);fill-opacity:1;stroke-width:1;stroke-linecap:butt;stroke-linejoin:miter;stroke:rgb(10.980392%,64.313728%,94.509804%);stroke-opacity:1;stroke-miterlimit:4;" d="M 261.504141 185.504557 C 256.545352 182.995009 253.804688 182.580295 248.995195 186.504123 C 245.166797 190.651259 243.972422 193.777561 241.99957 199.498481 C 240.112031 208.281901 240.666562 213.205295 243.99375 221.999349 C 247.502227 229.57053 250.552148 233.600694 257.995664 240.501953 C 264.031523 243.458116 267.348047 243.58572 273 240.501953 C 276.540469 236.376085 277.372266 233.621962 276.999023 227.996745 L 271.496367 221.999349 C 267.358711 218.522135 265.983047 215.970052 265.001953 210.50434 C 263.903555 204.347439 264.554062 200.965929 266.996133 195.000434 C 266.441602 190.874566 265.460508 188.737196 261.504141 185.504557 Z M 261.504141 185.504557 " transform="matrix(0.3663,0,0,0.367347,0,0)"/>
<path style="fill-rule:nonzero;fill:rgb(10.980392%,64.313728%,94.509804%);fill-opacity:1;stroke-width:1;stroke-linecap:butt;stroke-linejoin:miter;stroke:rgb(10.980392%,64.313728%,94.509804%);stroke-opacity:1;stroke-miterlimit:4;" d="M 322.502578 240.501953 C 308.340703 233.824002 301.622344 232.260851 292.50457 234.504557 C 285.700898 235.738064 283.728047 238.375217 282.50168 245.499783 C 283.749375 251.507812 285.359648 253.517578 288.996094 255.995226 L 301.505039 257.505208 C 307.41293 259.227865 310.686797 261.003689 316.498711 265.001953 C 321.830742 270.722873 322.87582 274.274523 322.502578 280.995009 C 320.241797 288.80013 318.023672 292.67079 313.000898 298.99783 C 312.073125 307.05816 313.502109 310.014323 319.495313 312.502604 C 326.448281 311.3648 330.298008 309.865451 336.995039 302.996094 C 341.026055 295.882161 342.988242 291.692491 345.504961 283.504557 C 345.408984 274.933811 344.513203 270.116753 341.004727 261.503472 C 335.971289 251.465278 331.908281 246.914062 322.502578 240.501953 Z M 322.502578 240.501953 " transform="matrix(0.3663,0,0,0.367347,0,0)"/>
<path style=" stroke:none;fill-rule:nonzero;fill:rgb(10.980392%,64.313728%,94.509804%);fill-opacity:1;" d="M 172.527344 62.265625 L 139.5625 62.265625 C 137.699219 63.320312 137.359375 64.28125 137.363281 66.304688 C 137.773438 69.191406 138.308594 70.019531 139.5625 70.714844 L 172.527344 70.714844 C 174.78125 69.875 175.5 68.9375 175.640625 66.304688 C 175.492188 64.003906 174.816406 63.101562 172.527344 62.265625 Z M 172.527344 62.265625 "/>
<path style=" stroke:none;fill-rule:nonzero;fill:rgb(10.980392%,64.313728%,94.509804%);fill-opacity:1;" d="M 149.816406 114.429688 C 149.558594 100.441406 149.523438 92.390625 149.816406 77.328125 C 150.644531 75.867188 151.328125 75.324219 153.296875 75.304688 C 155.144531 75.347656 155.984375 75.902344 157.324219 77.328125 C 157.261719 92.089844 157.171875 100.214844 156.960938 114.429688 C 155.78125 115.839844 154.925781 116.152344 153.296875 116.449219 C 151.730469 116.367188 150.898438 116.160156 149.816406 114.429688 Z M 149.816406 114.429688 "/>
<path style="fill:none;stroke-width:1;stroke-linecap:butt;stroke-linejoin:miter;stroke:rgb(10.980392%,64.313728%,94.509804%);stroke-opacity:1;stroke-miterlimit:4;" d="M 470.999648 169.500868 L 381.005625 169.500868 C 375.918867 172.371962 374.991094 174.987847 375.001758 180.496094 C 376.121484 188.354384 377.582461 190.608724 381.005625 192.501519 L 470.999648 192.501519 C 477.152812 190.215278 479.115 187.663194 479.498906 180.496094 C 479.093672 174.232856 477.248789 171.776476 470.999648 169.500868 Z M 470.999648 169.500868 " transform="matrix(0.3663,0,0,0.367347,0,0)"/>
<path style="fill:none;stroke-width:1;stroke-linecap:butt;stroke-linejoin:miter;stroke:rgb(10.980392%,64.313728%,94.509804%);stroke-opacity:1;stroke-miterlimit:4;" d="M 408.998789 311.503038 C 408.294961 273.423828 408.198984 251.507812 408.998789 210.50434 C 411.25957 206.527344 413.125781 205.049262 418.500469 204.996094 C 423.54457 205.113064 425.837344 206.623047 429.495117 210.50434 C 429.324492 250.689019 429.079219 272.807075 428.503359 311.503038 C 425.282812 315.341797 422.947383 316.192491 418.500469 317.000651 C 414.22418 316.777344 411.952734 316.213759 408.998789 311.503038 Z M 408.998789 311.503038 " transform="matrix(0.3663,0,0,0.367347,0,0)"/>
<path style="fill-rule:nonzero;fill:rgb(10.980392%,64.313728%,94.509804%);fill-opacity:1;stroke-width:1;stroke-linecap:butt;stroke-linejoin:miter;stroke:rgb(10.980392%,64.313728%,94.509804%);stroke-opacity:1;stroke-miterlimit:4;" d="M 539.494922 236.003906 C 536.78625 231.442057 535.81582 231.856771 534.994687 237.503255 L 539.494922 266.001519 C 538.535156 281.856337 536.647617 290.235677 531.496875 304.495443 C 524.885156 316.522135 520.288945 322.189887 511.000547 331.005208 C 498.065039 341.957899 489.960352 346.38151 473.99625 350.996528 C 468.301641 352.91059 464.857148 353.474175 458.501367 353.995226 L 313.000898 355.505208 L 313.000898 359.503472 L 458.501367 359.503472 C 464.707852 359.226997 468.109688 358.727214 473.99625 357.004557 C 489.40582 352.347005 497.670469 348.752821 511.000547 338.501953 C 523.317539 327.974609 529.385391 320.764974 538.001953 304.495443 C 542.384883 290.53342 544.048477 282.15408 544.997578 266.001519 C 544.411055 254.123698 543.174023 247.552083 539.494922 236.003906 Z M 539.494922 236.003906 " transform="matrix(0.3663,0,0,0.367347,0,0)"/>
<path style="fill-rule:nonzero;fill:rgb(10.980392%,64.313728%,94.509804%);fill-opacity:1;stroke-width:1;stroke-linecap:butt;stroke-linejoin:miter;stroke:rgb(10.980392%,64.313728%,94.509804%);stroke-opacity:1;stroke-miterlimit:4;" d="M 253.996641 271.499132 C 249.613711 272.817708 248.387344 274.763672 247.001016 278.995877 C 245.337422 285.088976 245.540039 288.48112 248.003437 294.499783 C 250.242891 300.210069 253.143516 303.517144 260.000508 309.503906 C 265.129922 313.831814 269.139609 315.597005 277.500234 318.000217 C 285.828867 319.446398 290.094492 319.659071 296.002383 317.500434 C 299.820117 315.309896 301.142461 313.225694 301.505039 307.504774 C 300.779883 303.30447 299.820117 301.092665 294.49875 297.998264 C 285.839531 297.689887 281.104688 296.403212 273 290.501519 C 268.265156 285.695095 266.025703 282.430556 262.997109 275.497396 C 260.544375 272.870877 259.445977 271.126953 253.996641 271.499132 Z M 253.996641 271.499132 " transform="matrix(0.3663,0,0,0.367347,0,0)"/>
<path style=" stroke:none;fill-rule:nonzero;fill:rgb(10.980392%,64.313728%,94.509804%);fill-opacity:1;" d="M 172.378906 78.507812 C 176.644531 79.066406 180.480469 81.558594 183.046875 85.4375 C 185.613281 89.3125 186.691406 94.257812 186.054688 99.183594 C 185.414062 104.109375 183.105469 108.613281 179.636719 111.703125 C 176.164062 114.792969 171.820312 116.214844 167.554688 115.65625 L 167.800781 113.742188 C 171.628906 114.242188 175.527344 112.96875 178.636719 110.195312 C 181.75 107.425781 183.820312 103.386719 184.394531 98.96875 C 184.96875 94.550781 184 90.113281 181.699219 86.636719 C 179.398438 83.15625 175.957031 80.921875 172.128906 80.421875 Z M 172.378906 78.507812 "/>
<path style="fill-rule:nonzero;fill:rgb(10.980392%,64.313728%,94.509804%);fill-opacity:1;stroke-width:1;stroke-linecap:butt;stroke-linejoin:miter;stroke:rgb(10.980392%,64.313728%,94.509804%);stroke-opacity:1;stroke-miterlimit:4;" d="M 243.503203 388.001736 L 243.503203 352.99566 C 243.300586 352.240668 244.996172 350.496745 248.995195 350.496745 C 253.004883 350.496745 255.500273 352.99566 255.500273 352.99566 L 255.500273 388.001736 C 253.378125 389.894531 251.917148 390.362413 248.995195 390.500651 C 246.062578 390.373047 244.782891 389.915799 243.503203 388.001736 Z M 243.503203 388.001736 " transform="matrix(0.3663,0,0,0.367347,0,0)"/>
<path style="fill-rule:nonzero;fill:rgb(100%,100%,100%);fill-opacity:1;stroke-width:1;stroke-linecap:butt;stroke-linejoin:miter;stroke:rgb(100%,100%,100%);stroke-opacity:1;stroke-miterlimit:4;" d="M 6.003867 350.496745 C 3.561797 350.284071 2.506055 350.805122 1.002422 352.495877 L 1.002422 373.997179 C 2.943281 379.654297 4.425586 381.770399 7.496836 384.503255 C 11.015977 387.501953 13.447383 388.363281 18.000937 389.501085 C 23.055703 389.405382 25.519102 388.799262 28.995586 386.502387 C 34.41293 390.224175 37.708125 390.78776 43.999922 389.501085 C 49.705195 388.363281 52.21125 386.821398 55.495781 382.504123 C 58.06582 377.729601 58.812305 374.709635 59.494805 368.999349 C 60.038672 363.671875 60.198633 360.396701 59.494805 353.495443 C 58.001836 351.645182 56.914102 350.794488 53.501602 350.496745 C 50.142422 351.017795 48.862734 352.081163 46.996523 354.495009 L 46.996523 362.50217 C 47.135156 369.03125 46.676602 371.721571 45.002344 374.996745 C 41.29125 376.379123 39.211758 376.559896 35.500664 374.996745 L 34.498242 354.495009 C 32.781328 353.006293 31.629609 352.517144 28.995586 352.495877 C 26.606836 352.782986 25.657734 353.240234 24.495352 354.495009 L 23.002383 373.997179 C 21.338789 375.76237 20.219062 376.092014 18.000937 375.996311 C 14.353828 373.94401 13.777969 371.508898 13.500703 366.500434 L 12.498281 353.495443 C 10.610742 351.66645 9.245742 350.932726 6.003867 350.496745 Z M 6.003867 350.496745 " transform="matrix(0.3663,0,0,0.367347,0,0)"/>
<path style="fill-rule:nonzero;fill:rgb(100%,100%,100%);fill-opacity:1;stroke-width:1;stroke-linecap:butt;stroke-linejoin:miter;stroke:rgb(100%,100%,100%);stroke-opacity:1;stroke-miterlimit:4;" d="M 76.503984 348.497613 C 73.741992 348.508247 72.462305 349.497179 70.500117 352.495877 L 69.998906 385.003038 C 71.555859 388.650391 72.97418 389.851997 76.503984 390.500651 C 79.767188 389.766927 81.121523 388.629123 82.497187 385.003038 L 82.497187 352.495877 C 80.833594 349.592882 79.479258 348.784722 76.503984 348.497613 Z M 76.503984 348.497613 " transform="matrix(0.3663,0,0,0.367347,0,0)"/>
<path style="fill-rule:nonzero;fill:rgb(100%,100%,100%);fill-opacity:1;stroke-width:1;stroke-linecap:butt;stroke-linejoin:miter;stroke:rgb(100%,100%,100%);stroke-opacity:1;stroke-miterlimit:4;" d="M 107.003203 350.496745 L 107.003203 342.500217 C 105.574219 340.128906 104.379844 339.320747 100.999336 339.501519 C 98.002734 339.948134 96.936328 340.596788 94.995469 342.000434 C 93.865078 345.105469 93.598477 346.455946 93.5025 348.497613 C 90.463242 350.390408 89.994023 351.932292 90.004688 354.994792 C 90.068672 358.216797 90.516563 359.567274 91.998867 361.002821 L 94.995469 361.002821 L 94.995469 376.496094 L 96.499102 382.504123 C 98.152031 386.013238 99.645 387.618924 103.00418 390.000868 C 105.915469 391.032335 107.557734 390.9898 110.501016 390.500651 C 112.836445 389.756293 113.753555 388.788628 115.00125 386.502387 C 116.174297 383.769531 116.323594 382.238281 115.00125 379.494792 L 108.496172 376.496094 L 107.994961 361.002821 L 113.497617 359.503472 C 115.139883 358.482639 115.822383 357.70638 116.003672 355.505208 C 116.355586 353.218967 115.854375 352.123698 113.497617 350.496745 Z M 107.003203 350.496745 " transform="matrix(0.3663,0,0,0.367347,0,0)"/>
<path style="fill-rule:nonzero;fill:rgb(100%,100%,100%);fill-opacity:1;stroke-width:1;stroke-linecap:butt;stroke-linejoin:miter;stroke:rgb(100%,100%,100%);stroke-opacity:1;stroke-miterlimit:4;" d="M 124.50293 386.002604 L 124.50293 329.995009 C 126.710391 326.432726 128.246016 325.486328 131.498555 325.496962 C 135.08168 325.762804 136.372031 326.804905 138.003633 329.495226 C 139.198008 338.129774 139.048711 343.085069 138.003633 351.996094 C 143.847539 349.677951 146.993437 349.677951 152.496094 350.996528 C 158.403984 352.79362 160.547461 354.771484 163.501406 359.003689 C 165.55957 366.319661 165.954141 370.264757 165.005039 376.995877 L 163.000195 388.501519 C 158.894531 389.958333 156.601758 390.085937 152.496094 388.501519 L 151.003125 366.000651 L 144.498047 361.502604 L 137.502422 364.501302 L 136.5 386.002604 C 135.700195 389.437283 133.983281 390.139106 129.994922 390.500651 C 127.350234 389.958333 126.017227 389.288411 124.50293 386.002604 Z M 124.50293 386.002604 " transform="matrix(0.3663,0,0,0.367347,0,0)"/>
<path style=" stroke:none;fill-rule:nonzero;fill:rgb(10.980392%,64.313728%,94.509804%);fill-opacity:1;" d="M 93.957031 123.246094 C 93.957031 121.722656 92.726562 120.488281 91.207031 120.488281 C 89.691406 120.488281 88.460938 121.722656 88.460938 123.246094 C 88.460938 124.765625 89.691406 126 91.207031 126 C 92.726562 126 93.957031 124.765625 93.957031 123.246094 Z M 93.957031 123.246094 "/>
<path style=" stroke:none;fill-rule:nonzero;fill:rgb(100%,100%,100%);fill-opacity:1;" d="M 30.585938 123.246094 C 30.585938 121.722656 29.355469 120.488281 27.839844 120.488281 C 26.320312 120.488281 25.089844 121.722656 25.089844 123.246094 C 25.089844 124.765625 26.320312 126 27.839844 126 C 29.355469 126 30.585938 124.765625 30.585938 123.246094 Z M 30.585938 123.246094 "/>
<path style="fill-rule:evenodd;fill:rgb(10.980392%,64.313728%,94.509804%);fill-opacity:1;stroke-width:1;stroke-linecap:butt;stroke-linejoin:miter;stroke:rgb(10.980392%,64.313728%,94.509804%);stroke-opacity:1;stroke-miterlimit:4;" d="M 216.501797 351.996094 C 210.871172 349.050564 207.48 348.508247 200.99625 349.497179 C 196.240078 352.198134 194.277891 354.261068 191.505234 358.503906 C 188.753906 363.958984 188.465977 367.776476 189.500391 375.496528 C 191.899805 381.026042 193.798008 383.493056 197.999648 387.00217 C 201.849375 389.575521 204.430078 390.06467 209.495508 390.000868 C 213.889102 389.45855 216.309844 388.746094 220.50082 385.502821 C 224.019961 388.565321 225.982148 388.990668 229.501289 387.00217 C 233.009766 385.003038 232.188633 366.000651 229.501289 351.996094 C 228.082969 350.507378 226.98457 349.879991 223.998633 349.497179 C 220.692773 349.550347 219.039844 350.05013 216.501797 351.996094 Z M 210.999141 360.003255 C 208.365117 359.248264 207.117422 359.418403 205.496484 361.002821 C 203.33168 363.406033 202.734492 365.309462 202.499883 369.499132 C 202.787813 372.965712 203.630273 374.560764 205.997695 376.995877 C 209.100937 378.037977 210.849844 377.878472 213.995742 375.996311 C 215.925938 374.401259 216.853711 373.369792 217.504219 370.498698 C 217.77082 367.850911 217.632187 366.330295 216.501797 363.501736 C 214.678242 361.789714 213.515859 360.97092 210.999141 360.003255 Z M 210.999141 360.003255 " transform="matrix(0.3663,0,0,0.367347,0,0)"/>
</g>
</svg>
